<?xml version="1.0" encoding="UTF-8"?>
<svg version="1.1" xmlns="http://www.w3.org/2000/svg" width="24" height="24">
<path d="M0 0 C7.92 0 15.84 0 24 0 C24 7.92 24 15.84 24 24 C16.08 24 8.16 24 0 24 C0 16.08 0 8.16 0 0 Z " fill="#090909" transform="translate(0,0)"/>
<path d="M0 0 C5.44693314 -0.09688221 10.63904667 -0.12862175 16 1 C16.125 6.75 16.125 6.75 15 9 C10.61494894 10.54766508 6.65246239 11.540984 2 11 C0 8 0 8 0 4 C0.99 4.495 0.99 4.495 2 5 C2 4.34 2 3.68 2 3 C1.34 2.67 0.68 2.34 0 2 C0 1.34 0 0.68 0 0 Z " fill="#0C0B0C" transform="translate(3,6)"/>
<path d="M0 0 C10.55808656 -0.18451025 10.55808656 -0.18451025 15 1 C11.36576791 3.32590854 8.22911669 3.16265833 4 3 C4 5.31 4 7.62 4 10 C7.63 9.01 11.26 8.02 15 7 C15 7.66 15 8.32 15 9 C10.55493675 10.42242024 6.72271651 11.54915308 2 11 C0 8 0 8 0 4 C0.99 4.495 0.99 4.495 2 5 C2 4.34 2 3.68 2 3 C1.34 2.67 0.68 2.34 0 2 C0 1.34 0 0.68 0 0 Z " fill="#373238" transform="translate(3,6)"/>
<path d="M0 0 C0 0.99 0 1.98 0 3 C-2.76250036 4.38125018 -4.94731099 4.19079306 -8 4 C-8.66 3.34 -9.32 2.68 -10 2 C-3.375 0 -3.375 0 0 0 Z " fill="#201D20" transform="translate(21,14)"/>
<path d="M0 0 C0 1.98 0 3.96 0 6 C-0.99 6.33 -1.98 6.66 -3 7 C-3.33 6.01 -3.66 5.02 -4 4 C-3.34 4 -2.68 4 -2 4 C-2 3.34 -2 2.68 -2 2 C-2.99 1.67 -3.98 1.34 -5 1 C-1.125 0 -1.125 0 0 0 Z " fill="#1F1C20" transform="translate(19,7)"/>
</svg>
